<svg width="36" height="24" viewBox="0 0 36 24" fill="none" xmlns="http://www.w3.org/2000/svg">
<path d="M1.5 24C1.06667 24 0.708334 23.8583 0.425 23.575C0.141667 23.2917 0 22.9333 0 22.5C0 22.0667 0.141667 21.7083 0.425 21.425C0.708334 21.1417 1.06667 21 1.5 21H34.5C34.9333 21 35.2917 21.1417 35.575 21.425C35.8583 21.7083 36 22.0667 36 22.5C36 22.9333 35.8583 23.2917 35.575 23.575C35.2917 23.8583 34.9333 24 34.5 24H1.5ZM1.5 13.5C1.06667 13.5 0.708334 13.3583 0.425 13.075C0.141667 12.7917 0 12.4333 0 12C0 11.5667 0.141667 11.2083 0.425 10.925C0.708334 10.6417 1.06667 10.5 1.5 10.5H34.5C34.9333 10.5 35.2917 10.6417 35.575 10.925C35.8583 11.2083 36 11.5667 36 12C36 12.4333 35.8583 12.7917 35.575 13.075C35.2917 13.3583 34.9333 13.5 34.5 13.5H1.5ZM1.5 3C1.06667 3 0.708334 2.85833 0.425 2.575C0.141667 2.29167 0 1.93333 0 1.5C0 1.06667 0.141667 0.708334 0.425 0.425C0.708334 0.141667 1.06667 0 1.5 0H34.5C34.9333 0 35.2917 0.141667 35.575 0.425C35.8583 0.708334 36 1.06667 36 1.5C36 1.93333 35.8583 2.29167 35.575 2.575C35.2917 2.85833 34.9333 3 34.5 3H1.5Z" fill="#1B242C"/>
</svg>
