<svg width="64" height="53" viewBox="0 0 64 53" fill="none" xmlns="http://www.w3.org/2000/svg">
<path d="M1.42719 11.6906L1.26426 8.14677C1.26426 5.98611 2.12258 3.91395 3.65039 2.38613C5.17821 0.858318 7.25037 0 9.41103 0H24.3685C26.529 0.000461412 28.6008 0.859082 30.1283 2.387L33.501 5.75976C35.0285 7.28769 37.1003 8.14631 39.2608 8.14677H55.481C56.6131 8.14665 57.7327 8.38248 58.7686 8.83921C59.8045 9.29594 60.7338 9.96354 61.4972 10.7994C62.2607 11.6353 62.8415 12.6212 63.2028 13.6941C63.564 14.767 63.6976 15.9034 63.5952 17.0308L62.5524 28.5137H58.4546L59.534 16.6601C59.5849 16.0969 59.518 15.5293 59.3375 14.9934C59.157 14.4574 58.8669 13.965 58.4856 13.5473C58.1043 13.1296 57.6403 12.7959 57.123 12.5675C56.6057 12.339 56.0465 12.2207 55.481 12.2202H8.14828C7.58243 12.2201 7.02278 12.338 6.505 12.5662C5.98722 12.7945 5.52268 13.1281 5.14098 13.5458C4.75928 13.9635 4.4688 14.4562 4.28805 14.9924C4.10731 15.5286 4.04026 16.0966 4.09119 16.6601L6.68593 45.1738C6.77739 46.1859 7.24384 47.1272 7.99372 47.8131C8.7436 48.4989 9.72275 48.8796 10.7389 48.8806H35.888V52.954H10.7389C8.70648 52.9532 6.74772 52.1927 5.2472 50.8218C3.74668 49.4509 2.81278 47.5686 2.62884 45.5445L0.0340975 17.0308C-0.139485 15.144 0.353427 13.2559 1.42719 11.6947V11.6906ZM27.2484 5.26689C26.4846 4.50292 25.4487 4.07361 24.3685 4.07338H9.41103C8.34397 4.07319 7.31945 4.49171 6.55773 5.23896C5.79601 5.98621 5.35792 7.00251 5.33764 8.06937L5.36208 8.63557C6.23379 8.31785 7.17067 8.14677 8.14828 8.14677H30.1283L27.2484 5.26689Z" fill="#555F6D"/>
<path d="M47.5135 37.2552C47.131 36.8733 46.6125 36.659 46.0721 36.6594C45.5316 36.6597 45.0134 36.8748 44.6315 37.2572C44.2496 37.6397 44.0353 38.1582 44.0357 38.6986C44.0361 39.2391 44.2511 39.7573 44.6336 40.1392L49.3017 44.8073L44.6336 49.4754C44.4442 49.6645 44.294 49.889 44.1914 50.1362C44.0888 50.3833 44.0359 50.6483 44.0357 50.9159C44.0353 51.4564 44.2496 51.9748 44.6315 52.3573C45.0134 52.7397 45.5316 52.9548 46.0721 52.9552C46.6125 52.9555 47.131 52.7412 47.5135 52.3593L52.1816 47.6871L56.8497 52.3593C57.2321 52.7418 57.7508 52.9566 58.2916 52.9566C58.8325 52.9566 59.3512 52.7418 59.7336 52.3593C60.1161 51.9769 60.3309 51.4582 60.3309 50.9173C60.3309 50.3765 60.1161 49.8578 59.7336 49.4754L55.0614 44.8073L59.7336 40.1392C60.1161 39.7573 60.3311 39.2391 60.3315 38.6986C60.3319 38.1582 60.1175 37.6397 59.7357 37.2572C59.3538 36.8748 58.8356 36.6597 58.2951 36.6594C57.7546 36.659 57.2362 36.8733 56.8537 37.2552L52.1816 41.9274L47.5135 37.2552Z" fill="#555F6D"/>
</svg>
