<svg width="64" height="54" viewBox="0 0 64 54" fill="none" xmlns="http://www.w3.org/2000/svg">
<path d="M1.42719 11.8393L1.26426 8.29545C1.26426 6.13479 2.12258 4.06263 3.65039 2.53481C5.17821 1.007 7.25037 0.148682 9.41103 0.148682H24.3685C26.529 0.149143 28.6008 1.00776 30.1283 2.53568L33.501 5.90845C35.0285 7.43637 37.1003 8.29499 39.2608 8.29545H55.481C56.6131 8.29533 57.7327 8.53116 58.7686 8.98789C59.8045 9.44462 60.7338 10.1122 61.4972 10.9481C62.2607 11.784 62.8415 12.7699 63.2028 13.8428C63.564 14.9157 63.6976 16.0521 63.5952 17.1795L62.5524 28.6624H58.4546L59.534 16.8088C59.5849 16.2456 59.518 15.678 59.3375 15.142C59.157 14.6061 58.8669 14.1136 58.4856 13.696C58.1043 13.2783 57.6403 12.9446 57.123 12.7161C56.6057 12.4876 56.0465 12.3694 55.481 12.3688H8.14828C7.58243 12.3688 7.02278 12.4867 6.505 12.7149C5.98722 12.9431 5.52268 13.2768 5.14098 13.6945C4.75928 14.1122 4.4688 14.6049 4.28805 15.1411C4.10731 15.6773 4.04026 16.2453 4.09119 16.8088L6.68593 45.3225C6.77739 46.3346 7.24384 47.2759 7.99372 47.9617C8.7436 48.6476 9.72275 49.0283 10.7389 49.0293H35.888V53.1027H10.7389C8.70648 53.1019 6.74772 52.3414 5.2472 50.9705C3.74668 49.5996 2.81278 47.7173 2.62884 45.6932L0.0340975 17.1795C-0.139485 15.2926 0.353427 13.4046 1.42719 11.8434V11.8393ZM27.2484 5.41557C26.4846 4.65161 25.4487 4.2223 24.3685 4.22207H9.41103C8.34397 4.22187 7.31945 4.64039 6.55773 5.38764C5.79601 6.13489 5.35792 7.1512 5.33764 8.21805L5.36208 8.78425C6.23379 8.46653 7.17067 8.29545 8.14828 8.29545H30.1283L27.2484 5.41557Z" fill="#1B242C"/>
<path d="M47.5135 37.4039C47.131 37.022 46.6126 36.8077 46.0721 36.808C45.5316 36.8084 45.0134 37.0235 44.6316 37.4059C44.2497 37.7884 44.0353 38.3068 44.0357 38.8473C44.0361 39.3878 44.2512 39.906 44.6336 40.2878L49.3017 44.9559L44.6336 49.624C44.4442 49.8131 44.294 50.0377 44.1914 50.2849C44.0888 50.532 44.0359 50.797 44.0357 51.0646C44.0353 51.605 44.2497 52.1235 44.6316 52.506C45.0134 52.8884 45.5316 53.1035 46.0721 53.1038C46.6126 53.1042 47.131 52.8899 47.5135 52.508L52.1816 47.8358L56.8497 52.508C57.2321 52.8904 57.7508 53.1053 58.2916 53.1053C58.8325 53.1053 59.3512 52.8904 59.7336 52.508C60.1161 52.1256 60.3309 51.6069 60.3309 51.066C60.3309 50.5252 60.1161 50.0065 59.7336 49.624L55.0615 44.9559L59.7336 40.2878C60.1161 39.906 60.3311 39.3878 60.3315 38.8473C60.3319 38.3068 60.1176 37.7884 59.7357 37.4059C59.3538 37.0235 58.8356 36.8084 58.2951 36.808C57.7547 36.8077 57.2362 37.022 56.8537 37.4039L52.1816 42.0761L47.5135 37.4039Z" fill="#1B242C"/>
</svg>
